<svg xmlns="http://www.w3.org/2000/svg" viewBox="0 0 200 200" fill="none">
  <style>
    path, circle {
      stroke: #FFFFFF;
    }
    @media (prefers-color-scheme: light) {
      path, circle {
        stroke: #111111;
      }
    }
  </style>
  <!-- Camera Body -->
  <path
    d="M 84,44 L 116,44 M 84,44 L 72,62 L 38,62 A 10,10 0 0,0 28,72 L 28,132 A 10,10 0 0,0 38,142 L 72,142 M 116,44 L 128,62 L 162,62 A 10,10 0 0,1 172,72 L 172,132 A 10,10 0 0,1 162,142 L 148,142"
    stroke-width="7"
    stroke-linecap="round"
    stroke-linejoin="round"
  />
  
  <!-- Outer Left Crescent Arc (Lens Reflection Accent) -->
  <path
    d="M 60,70 A 50,50 0 0,0 60,130"
    stroke-width="5"
    stroke-linecap="round"
    stroke-linejoin="round"
  />

  <!-- Main Lens Circle -->
  <circle
    cx="100"
    cy="100"
    r="34"
    stroke-width="7"
    stroke-linecap="round"
    stroke-linejoin="round"
  />

  <!-- Inner Stylized G Curve -->
  <path
    d="M 116,88 A 20,20 0 1,0 116,112"
    stroke-width="7"
    stroke-linecap="round"
    stroke-linejoin="round"
  />

  <!-- Inner Stylized G Horizontal Bar -->
  <path
    d="M 118,100 L 100,100"
    stroke-width="7"
    stroke-linecap="round"
    stroke-linejoin="round"
  />
</svg>
